<svg xmlns="http://www.w3.org/2000/svg" viewBox="0 0 481 157.32">
  <defs>
    <style>
      .cls-1 {
        fill: #ff6473;
      }

      .cls-2 {
        isolation: isolate;
      }

      .cls-3 {
        fill: #282828;
      }

      .cls-4 {
        fill: #990027;
      }

      .cls-5 {
        fill: #458083;
      }
    </style>
  </defs>
  <title>logo</title>
  <g id="Layer_2" data-name="Layer 2">
    <g id="Layer_1-2" data-name="Layer 1">
      <g id="logo">
        <g id="Artboard">
          <g id="Group">
            <rect id="Rectangle" class="cls-1" y="126" width="481" height="10"/>
            <g id="laboobal" class="cls-2">
              <g class="cls-2">
                <path class="cls-3" d="M45,156H24.2V93.7H10.91V87.1h20.9v62.31H45Z"/>
                <path class="cls-3" d="M110,156h-7.57a29.26,29.26,0,0,1-.93-8.2q-6.49,9.51-17.68,9.52a14.18,14.18,0,0,1-10-4,13.55,13.55,0,0,1-4.32-10.38A14.07,14.07,0,0,1,71,136.27a13.24,13.24,0,0,1,4.44-4.85,24.12,24.12,0,0,1,7.13-3.13,54.69,54.69,0,0,1,10-1.59l8.55-.68v-2.44q0-13.1-12.21-13.09a28.12,28.12,0,0,0-7.3,1.25,37.69,37.69,0,0,0-7.59,3l-2-5.47q10.4-5.32,19.33-5.32,17.39,0,17.39,18.41v21.87A49.62,49.62,0,0,0,110,156Zm-8.89-15.09v-9.23q-10.3.93-14.14,1.74a15.9,15.9,0,0,0-6.64,3,7.16,7.16,0,0,0-2.8,6,6.94,6.94,0,0,0,2.39,5.51A8.9,8.9,0,0,0,86,150a15.48,15.48,0,0,0,8.06-2.41A23.72,23.72,0,0,0,101.1,140.91Z"/>
                <path class="cls-3" d="M137.13,111.71a18.36,18.36,0,0,1,6.87-5.66,20.2,20.2,0,0,1,9.1-2.15A15.9,15.9,0,0,1,166.94,111q5,7.13,5,18.75t-5.27,19.65q-5.28,7.89-14.11,7.89a17.52,17.52,0,0,1-8.87-2.37,18.08,18.08,0,0,1-6.52-6.27V156h-7.61V87.1h7.61Zm0,7.57v21.14A20.85,20.85,0,0,0,143,147.6a12.1,12.1,0,0,0,7.56,2.88q6.17,0,9.79-5.86t3.64-14.4q0-8.79-3.47-14.26a10.87,10.87,0,0,0-9.66-5.47Q142.76,110.49,137.13,119.28Z"/>
                <path class="cls-3" d="M209,103.9q10.5,0,16.7,7.32t6.2,19.29q0,12.06-6.2,19.44T209,157.32q-10.55,0-16.72-7.35t-6.18-19.46q0-12,6.2-19.31T209,103.9Zm0,46.78A12.6,12.6,0,0,0,220,144.82a24.58,24.58,0,0,0,4-14.21q0-8.79-3.95-14.45a13.54,13.54,0,0,0-22-.08q-3.9,5.6-3.9,14.53,0,8.49,3.95,14.28A12.54,12.54,0,0,0,209,150.68Z"/>
                <path class="cls-3" d="M269,103.9q10.5,0,16.7,7.32t6.2,19.29q0,12.06-6.2,19.44T269,157.32q-10.54,0-16.72-7.35t-6.18-19.46q0-12,6.2-19.31T269,103.9Zm0,46.78A12.6,12.6,0,0,0,280,144.82a24.58,24.58,0,0,0,4-14.21q0-8.79-3.95-14.45a13.54,13.54,0,0,0-22-.08q-3.9,5.6-3.9,14.53,0,8.49,3.95,14.28A12.54,12.54,0,0,0,269,150.68Z"/>
                <path class="cls-3" d="M317.16,111.71a18.41,18.41,0,0,1,6.86-5.66,20.27,20.27,0,0,1,9.11-2.15A15.92,15.92,0,0,1,347,111q5,7.13,5,18.75t-5.27,19.65q-5.28,7.89-14.12,7.89a17.51,17.51,0,0,1-8.86-2.37,18.08,18.08,0,0,1-6.52-6.27V156h-7.61V87.1h7.61Zm0,7.57v21.14A20.94,20.94,0,0,0,323,147.6a12.15,12.15,0,0,0,7.57,2.88q6.15,0,9.79-5.86t3.64-14.4q0-8.79-3.47-14.26a10.87,10.87,0,0,0-9.66-5.47Q322.77,110.49,317.16,119.28Z"/>
                <path class="cls-3" d="M410,156h-7.57a29.26,29.26,0,0,1-.93-8.2q-6.5,9.51-17.68,9.52a14.18,14.18,0,0,1-10-4,13.55,13.55,0,0,1-4.32-10.38,14.07,14.07,0,0,1,1.51-6.64,13.24,13.24,0,0,1,4.44-4.85,24.12,24.12,0,0,1,7.13-3.13,54.69,54.69,0,0,1,10-1.59l8.55-.68v-2.44q0-13.1-12.21-13.09a28.12,28.12,0,0,0-7.3,1.25,37.46,37.46,0,0,0-7.59,3l-2-5.47q10.4-5.32,19.33-5.32,17.39,0,17.39,18.41v21.87A49.62,49.62,0,0,0,410,156Zm-8.89-15.09v-9.23q-10.31.93-14.14,1.74a15.9,15.9,0,0,0-6.64,3,7.16,7.16,0,0,0-2.81,6,7,7,0,0,0,2.4,5.51,8.9,8.9,0,0,0,6.1,2.1,15.48,15.48,0,0,0,8.06-2.41A23.72,23.72,0,0,0,401.15,140.91Z"/>
                <path class="cls-3" d="M465.06,156h-20.8V93.7H431V87.1h20.9v62.31h13.18Z"/>
              </g>
            </g>
            <path id="Rectangle-Copy-4" class="cls-4" d="M208,38h0a10,10,0,0,1,10,10h0a10,10,0,0,1-10,10h0a10,10,0,0,1-10-10h0A10,10,0,0,1,208,38Z"/>
            <path id="Rectangle-Copy-5" class="cls-5" d="M269,0h0a10,10,0,0,1,10,10h0a10,10,0,0,1-10,10h0a10,10,0,0,1-10-10h0A10,10,0,0,1,269,0Z"/>
          </g>
        </g>
      </g>
    </g>
  </g>
</svg>
