<?xml version="1.0" encoding="UTF-8"?>
<svg width="408px" height="196px" viewBox="0 0 408 196" version="1.1" xmlns="http://www.w3.org/2000/svg" xmlns:xlink="http://www.w3.org/1999/xlink">
    <!-- Generator: Sketch 49.3 (51167) - http://www.bohemiancoding.com/sketch -->
    <title>logo</title>
    <desc>Created with Sketch.</desc>
    <defs></defs>
    <g id="Page-1" stroke="none" stroke-width="1" fill="none" fill-rule="evenodd">
        <g id="logo" transform="translate(3.000000, 4.000000)">
            <rect id="Rectangle-path" fill="#272626" fill-rule="nonzero" x="0" y="0" width="401" height="188"></rect>
            <g id="Group">
                <g transform="translate(69.000000, 44.000000)" fill="#F9FAFB" fill-rule="nonzero" id="Shape">
                    <path d="M26.3,18.16 L34.52,18.16 L34.52,30 C30.8933333,33.6933333 25.8666667,35.54 19.44,35.54 C14.4758838,35.6894496 9.64012644,33.9488628 5.91,30.67 C2.34045065,27.5932461 0.333942168,23.0813532 0.44,18.37 C0.357918667,13.6242567 2.39635476,9.08910304 6,6 C9.68592343,2.68614866 14.4944619,0.898587889 19.45,1 C24.4298676,0.903269651 29.2819999,2.57971856 33.14,5.73 L28.9,11.32 C27.5452307,10.1819547 26.0155304,9.27021277 24.37,8.62 C22.9306718,8.11621264 21.4148826,7.86583675 19.89,7.88 C16.9994762,7.80059926 14.1890185,8.83527733 12.04,10.77 C7.83606891,14.939942 7.77805438,21.7187174 11.91,25.96 C13.8778961,27.8255316 16.4987671,28.8451581 19.21,28.8 C21.6516267,28.8851017 24.0775136,28.3772781 26.28,27.32 L26.3,18.16 Z"></path>
                    <path d="M88.23,12.85 C88.23,18.1833333 85.8966667,21.64 81.23,23.22 L90.5,35.16 L80.48,35.16 L72.37,24.51 L66.72,24.51 L66.72,35.16 L58.55,35.16 L58.55,1.76 L72.42,1.76 C78.1066667,1.76 82.1633333,2.63666667 84.59,4.39 C87.0166667,6.14333333 88.23,8.96333333 88.23,12.85 Z M78.39,16.85 C79.4782183,15.8420661 80.0393157,14.3876424 79.91,12.91 C79.91,11.11 79.3866667,9.87666667 78.34,9.21 C77.2933333,8.54333333 75.46,8.21 72.84,8.21 L66.72,8.21 L66.72,18.1 L72.72,18.1 C75.4866667,18.0733333 77.3766667,17.6466667 78.39,16.82 L78.39,16.85 Z"></path>
                    <path d="M139.43,35.17 L136,28 L120.69,28 L117.29,35.21 L108.6,35.21 L124.41,1.81 L132.32,1.81 L148.13,35.21 L139.43,35.17 Z M128.43,11.71 L123.82,21.41 L132.98,21.41 L128.43,11.71 Z"></path>
                    <polygon points="194.71 1.77 202.88 1.77 202.88 35.17 194.71 35.17 177.28 14.24 177.28 35.17 169.11 35.17 169.11 1.77 176.75 1.77 194.75 23.27"></polygon>
                    <path d="M256.59,6.14 C260.076667,9.05333333 261.82,13.1066667 261.82,18.3 C261.82,23.4933333 260.12,27.6033333 256.72,30.63 C253.32,33.6566667 248.126667,35.17 241.14,35.17 L228.63,35.17 L228.63,1.77 L241.56,1.77 C248.086667,1.77 253.096667,3.22666667 256.59,6.14 Z M250.59,25.99 C252.59,24.27 253.59,21.77 253.59,18.49 C253.59,15.21 252.59,12.6866667 250.59,10.92 C248.59,9.15333333 245.51,8.27 241.35,8.27 L236.8,8.27 L236.8,28.58 L242,28.58 C245.72,28.5733333 248.583333,27.7133333 250.59,26 L250.59,25.99 Z"></path>
                    <path d="M13,72.7 C12.2420141,73.2352424 11.7997342,74.1123059 11.82,75.04 C11.8249264,76.0227685 12.3814906,76.9194554 13.26,77.36 C15.3850892,78.3000251 17.6189311,78.9718572 19.91,79.36 C22.8416752,79.9065298 25.609151,81.1175143 28,82.9 C29.9810431,84.5968005 31.0479627,87.1270301 30.88,89.73 C30.9332451,92.6211558 29.5514284,95.3510863 27.19,97.02 C24.73,98.8866667 21.4933333,99.82 17.48,99.82 C11.7212759,99.8316046 6.15634817,97.7407564 1.83,93.94 L6.7,88.49 C10.6466667,91.6433333 14.2933333,93.22 17.64,93.22 C18.8784869,93.2893719 20.1090052,92.9826138 21.17,92.34 C21.9855164,91.8222284 22.4709829,90.9157713 22.45,89.95 C22.4624049,88.9659665 21.9423109,88.0519777 21.09,87.56 C19.3939879,86.6946812 17.5767209,86.0911733 15.7,85.77 C11.44,84.8433333 8.32666667,83.64 6.36,82.16 C4.39333333,80.68 3.39333333,78.3466667 3.36,75.16 C3.23857648,72.2306506 4.65691644,69.450856 7.1,67.83 C9.87399226,66.030098 13.1354451,65.1291828 16.44,65.25 C18.9276459,65.2577433 21.3995042,65.6455519 23.77,66.4 C26.0764179,67.0944751 28.2403553,68.1950692 30.16,69.65 L26.02,75.1 C23.1616987,73.0059633 19.7228941,71.8527056 16.18,71.8 C15.0507523,71.7498393 13.9354715,72.0654848 13,72.7 Z"></path>
                    <polygon points="77.42 72.48 77.42 99.43 69.25 99.43 69.25 72.48 58.89 72.48 58.89 66 87.79 66 87.79 72.45"></polygon>
                    <path d="M138.67,99.43 L135.27,92.22 L119.93,92.22 L116.53,99.43 L107.84,99.43 L123.64,66 L131.55,66 L147.36,99.4 L138.67,99.43 Z M127.67,75.97 L123.06,85.67 L132.22,85.67 L127.67,75.97 Z"></path>
                    <path d="M201.18,77.12 C201.18,82.4533333 198.846667,85.91 194.18,87.49 L203.45,99.43 L193.43,99.43 L185.32,88.78 L179.67,88.78 L179.67,99.43 L171.5,99.43 L171.5,66 L185.37,66 C191.056667,66 195.113333,66.8766667 197.54,68.63 C199.966667,70.3833333 201.18,73.2133333 201.18,77.12 Z M191.34,81.12 C192.428218,80.1120661 192.989316,78.6576424 192.86,77.18 C192.86,75.38 192.336667,74.1466667 191.29,73.48 C190.243333,72.8133333 188.41,72.48 185.79,72.48 L179.67,72.48 L179.67,82.37 L185.67,82.37 C188.436667,82.3433333 190.323333,81.9133333 191.33,81.08 L191.34,81.12 Z"></path>
                </g>
                <polygon id="Shape" fill="#AE8D58" fill-rule="nonzero" points="315.66 105.38 335.31 119.66 327.8 142.77 303.51 142.77 296 119.66"></polygon>
                <rect id="Rectangle-path" stroke="#F9FAFB" stroke-width="7" x="0.83" y="0.49" width="400" height="187.02"></rect>
            </g>
        </g>
    </g>
</svg>